# xmcd CD database file
#
# Track frame offsets:
#	150
#	22287
#	36132
#	49548
#	63557
#	74737
#	87750
#	97972
#	109053
#	121749
#	134911
#	147539
#	157980
#	169102
#	179626
#	187479
#	197599
#	216618
#	226821
#
# Disc length: 3203 seconds
#
# Revision: 2
# Processed by: cddbd v1.5.2PL0 Copyright (c) Steve Scherf et al.
# Submitted via: CDex 1.70beta2
#
DISCID=290c8113
DTITLE=Various Artist - Summer Of The 60's  CD3
DYEAR=2010
DGENRE=NewAge
TTITLE0=Canned Heat - On The Road Again
TTITLE1=Ten Years After - Love Like A Man
TTITLE2=The Spencer Davis Group - Gimme Some Lovin'
TTITLE3=The Small Faces - Lazy Sunday
TTITLE4=The Yardbirds - For Your Love
TTITLE5=The Turtles - Happy Together
TTITLE6=The Crystals - Da Doo Ron Ron
TTITLE7=The Equals - Baby Come Back
TTITLE8=The Shangri-Las - Leader Of The Pack
TTITLE9=Tini Lopez - If I Had A Hammer
TTITLE10=The Archies - Sugar Sugar
TTITLE11=Cilla Black - Step Inside Love
TTITLE12=Little Eva - The Locomotion
TTITLE13=Johnny Kid and The Pirates - Shakin' All Over
TTITLE14=The Swinging Blue Jeans - The Hippy Hippy Shake
TTITLE15=Del Shannon - Runaway
TTITLE16=Bobbie Gentry  - Ode To Billie Joe
TTITLE17=The Marcels - Blue Moon
TTITLE18=Shocking Blue - Venus
EXTD=YEAR: 2010
EXTT0=
EXTT1=
EXTT2=
EXTT3=
EXTT4=
EXTT5=
EXTT6=
EXTT7=
EXTT8=
EXTT9=
EXTT10=
EXTT11=
EXTT12=
EXTT13=
EXTT14=
EXTT15=
EXTT16=
EXTT17=
EXTT18=
PLAYORDER=
